# xmcd
#
# Track frame offsets: 
#        150
#        5522
#        28377
#        44340
#        60832
#        79180
#        81595
#        102262
#        123620
#        144237
#        164635
#        165995
#        181972
#        206557
#        208020
#        226560
#        250910
#        278347
#
# Disc length: 3978 seconds
#
# Revision: 0
# Processed by: cddbd v1.5.2PL0 Copyright (c) Steve Scherf et al.
# Submitted via: ExactAudioCopy v0.95b4
#
DISCID=ed0f8812
DTITLE=TQ - They Never Saw Me Coming
DYEAR=1998
DGENRE=R&B
TTITLE0=Change (Intro)
TTITLE1=Westside
TTITLE2=If The World Was Mine
TTITLE3=Paradise
TTITLE4=They Never Saw Me Coming (Featuring Jay)
TTITLE5=Don Breezio (Interlude)
TTITLE6=Gotta Make That Money Feat. E-40
TTITLE7=I Get Around
TTITLE8=Remember Melinda
TTITLE9=One More Lick (Featuring Tray Deee)
TTITLE10=Ass Or Weed (Interlude)
TTITLE11=Darlin' Mary
TTITLE12=When I Get Out (Duet With Ericka Yancey)
TTITLE13=Weed Or Ass (Interlude)
TTITLE14=Your Sister (Featuring Too Short)
TTITLE15=Bye Bye Baby
TTITLE16=The Comeback (Featuring Daz Dillinger and Kurupt)
TTITLE17=Better Days
EXTD=
EXTT0=
EXTT1=
EXTT2=
EXTT3=
EXTT4=
EXTT5=
EXTT6=
EXTT7=
EXTT8=
EXTT9=
EXTT10=
EXTT11=
EXTT12=
EXTT13=
EXTT14=
EXTT15=
EXTT16=
EXTT17=
PLAYORDER=
